<svg xmlns="http://www.w3.org/2000/svg" viewBox="0 0 512 512" role="img" aria-hidden="true">
  <path fill="#FFD400" d="M325.3 234.3 221.3 174.5c-4.6-2.6-10.4.7-10.4 6v119.6c0 5.3 5.8 8.6 10.4 6l104-59.8c4.6-2.6 4.6-9.2 0-11.8z"/>
  <path fill="#F32E37" d="M195.8 331.2c0 5.3-5.8 8.6-10.4 6l-104-59.8c-4.6-2.6-4.6-9.2 0-11.8l104-59.8c4.6-2.6 10.4.7 10.4 6v119.6z"/>
  <path fill="#48FF48" d="M86.4 192.7 195.8 136V104L98.4 48.2C83.8 39.8 65.2 50.4 65.2 67v378c0 16.6 18.6 27.2 33.2 18.8l97.4-55.8V368l-109.4-56.5c-4.6-2.6-4.6-9.2 0-11.8z"/>
  <path fill="#3BCCFF" d="M325.3 277.7l104-59.8c4.6-2.6 4.6-9.2 0-11.8L195.8 136v64l129.5 77.7z"/>
</svg>
